<svg xmlns="http://www.w3.org/2000/svg" id="Layer_1" data-name="Layer 1" viewBox="0 0 32 32"><path class="cls-1" d="M27,17.54H25c0-3-3.16-6.26-7.39-6.26H15.56c-3.68,0-7.4,1.94-7.4,6.26h-2c0-4.85,3.85-8.23,9.37-8.23h2.09C22.64,9.31,27,13.16,27,17.54Z"/><path class="cls-1" d="M16,11.2a5.53,5.53,0,1,1,5.53-5.53A5.54,5.54,0,0,1,16,11.2Zm0-9.09a3.56,3.56,0,1,0,3.56,3.56A3.57,3.57,0,0,0,16,2.11Z"/><path class="cls-2" d="M29.28,32H3.56l-3-15.93H31.6ZM5.2,30H27.57l1.75-12H2.93Z"/><path class="cls-2" d="M16.6,27.62a3.26,3.26,0,1,1,3.26-3.26A3.27,3.27,0,0,1,16.6,27.62Zm0-4.55a1.29,1.29,0,1,0,1.29,1.29A1.28,1.28,0,0,0,16.6,23.07Z"/></svg>