<svg width="34" height="34" viewBox="0 0 34 34" fill="none" xmlns="http://www.w3.org/2000/svg">
<path fill-rule="evenodd" clip-rule="evenodd" d="M26.4999 7.7085L19.9999 13.7085V15.7085C19.9999 17.9295 19.5159 20.0345 18.6479 21.9295C20.7949 23.6645 23.5239 24.7085 26.4999 24.7085C28.2249 24.7085 29.8669 24.3585 31.3609 23.7285C32.3999 21.6055 32.9999 19.2295 32.9999 16.7085V13.7085L26.4999 7.7085Z" stroke="black" stroke-width="2" />
<path d="M31.3613 23.728V23.728C29.8673 24.359 28.2243 24.708 26.5003 24.708C23.5243 24.708 20.7953 23.665 18.6483 21.929C16.7573 26.058 13.0463 29.178 8.53931 30.271C10.9963 31.806 13.8893 32.708 17.0003 32.708C23.3143 32.708 28.7583 29.04 31.3613 23.728" stroke="black" stroke-width="2" />
<path fill-rule="evenodd" clip-rule="evenodd" d="M7.833 27.355C11.939 26.36 15.098 23.347 16.377 19.521C14.888 17.463 14 14.942 14 12.209V1C6.599 2.405 1 8.898 1 16.709C1 21.068 2.749 25.016 5.577 27.902L7.833 27.355Z" stroke="black" stroke-width="2" />
</svg>